<mxfile host="app.diagrams.net" modified="2024-07-15T06:52:57.685Z" agent="Mozilla/5.0 (Windows NT 10.0; Win64; x64) AppleWebKit/537.36 (KHTML, like Gecko) Chrome/126.0.0.0 Safari/537.36" etag="W_Ah5Lc2kc_UlHpKZ_zg" version="24.6.5" type="github">
  <diagram name="Page-1" id="13e1069c-82ec-6db2-03f1-153e76fe0fe0">
    <mxGraphModel dx="2420" dy="673" grid="1" gridSize="10" guides="1" tooltips="1" connect="1" arrows="1" fold="1" page="1" pageScale="1" pageWidth="1100" pageHeight="850" background="none" math="0" shadow="0">
      <root>
        <mxCell id="0" />
        <mxCell id="1" parent="0" />
        <mxCell id="7baba1c4bc27f4b0-2" value="&lt;font style=&quot;font-size: 10px;&quot;&gt;CommonDataSetProcess&lt;/font&gt;&lt;div&gt;&lt;font style=&quot;font-size: 10px;&quot;&gt;同源数据处理类&lt;/font&gt;&lt;/div&gt;" style="shape=umlLifeline;perimeter=lifelinePerimeter;whiteSpace=wrap;html=1;container=1;collapsible=0;recursiveResize=0;outlineConnect=0;rounded=1;shadow=0;comic=0;labelBackgroundColor=none;strokeWidth=1;fontFamily=Verdana;fontSize=12;align=center;" parent="1" vertex="1">
          <mxGeometry x="240" y="80" width="130" height="580" as="geometry" />
        </mxCell>
        <mxCell id="7baba1c4bc27f4b0-10" value="" style="html=1;points=[];perimeter=orthogonalPerimeter;rounded=0;shadow=0;comic=0;labelBackgroundColor=none;strokeWidth=1;fontFamily=Verdana;fontSize=12;align=center;" parent="7baba1c4bc27f4b0-2" vertex="1">
          <mxGeometry x="60" y="100" width="10" height="410" as="geometry" />
        </mxCell>
        <mxCell id="5pJVLN1JeZVY1ZvF7sRm-49" value="获取同源数据集值" style="html=1;verticalAlign=bottom;endArrow=block;curved=0;rounded=0;entryX=0;entryY=0;entryDx=0;entryDy=5;" edge="1" parent="7baba1c4bc27f4b0-2">
          <mxGeometry relative="1" as="geometry">
            <mxPoint x="70" y="120" as="sourcePoint" />
            <mxPoint x="235" y="120" as="targetPoint" />
          </mxGeometry>
        </mxCell>
        <mxCell id="7baba1c4bc27f4b0-4" value="&lt;pre style=&quot;&quot;&gt;&lt;font style=&quot;&quot; face=&quot;JetBrains Mono, monospace&quot;&gt;&lt;span style=&quot;font-size: 13.0667px; background-color: rgb(255, 255, 255);&quot;&gt;BaseGebCommonProcessHandler&lt;/span&gt;&lt;span style=&quot;color: rgb(169, 183, 198); background-color: rgb(43, 43, 43); font-size: 9.8pt;&quot;&gt;&lt;br&gt;&lt;/span&gt;&lt;/font&gt;&lt;/pre&gt;" style="shape=umlLifeline;perimeter=lifelinePerimeter;whiteSpace=wrap;html=1;container=1;collapsible=0;recursiveResize=0;outlineConnect=0;rounded=1;shadow=0;comic=0;labelBackgroundColor=none;strokeWidth=1;fontFamily=Verdana;fontSize=12;align=center;" parent="1" vertex="1">
          <mxGeometry x="-290" y="190" width="115" height="580" as="geometry" />
        </mxCell>
        <mxCell id="7baba1c4bc27f4b0-16" value="" style="html=1;points=[];perimeter=orthogonalPerimeter;rounded=0;shadow=0;comic=0;labelBackgroundColor=none;strokeWidth=1;fontFamily=Verdana;fontSize=12;align=center;" parent="7baba1c4bc27f4b0-4" vertex="1">
          <mxGeometry x="100" y="90" width="10" height="180" as="geometry" />
        </mxCell>
        <mxCell id="7baba1c4bc27f4b0-34" value="" style="html=1;points=[];perimeter=orthogonalPerimeter;rounded=0;shadow=0;comic=0;labelBackgroundColor=none;strokeWidth=1;fontFamily=Verdana;fontSize=12;align=center;" parent="7baba1c4bc27f4b0-4" vertex="1">
          <mxGeometry x="105" y="170" width="10" height="70" as="geometry" />
        </mxCell>
        <mxCell id="7baba1c4bc27f4b0-36" value="dispatch" style="html=1;verticalAlign=bottom;endArrow=block;labelBackgroundColor=none;fontFamily=Verdana;fontSize=12;elbow=vertical;edgeStyle=orthogonalEdgeStyle;curved=1;exitX=1.066;exitY=0.713;exitPerimeter=0;" parent="7baba1c4bc27f4b0-4" source="7baba1c4bc27f4b0-34" edge="1">
          <mxGeometry relative="1" as="geometry">
            <mxPoint x="125.33333333333326" y="220" as="sourcePoint" />
            <mxPoint x="110" y="259" as="targetPoint" />
            <Array as="points">
              <mxPoint x="165" y="220" />
              <mxPoint x="165" y="259" />
            </Array>
          </mxGeometry>
        </mxCell>
        <mxCell id="7baba1c4bc27f4b0-5" value="&lt;span style=&quot;font-size: 10px;&quot;&gt;ICommonDataHandler&lt;/span&gt;&lt;div&gt;&lt;span style=&quot;font-size: 10px;&quot;&gt;本地数据获取实现&lt;/span&gt;&lt;/div&gt;" style="shape=umlLifeline;perimeter=lifelinePerimeter;whiteSpace=wrap;html=1;container=1;collapsible=0;recursiveResize=0;outlineConnect=0;rounded=1;shadow=0;comic=0;labelBackgroundColor=none;strokeWidth=1;fontFamily=Verdana;fontSize=12;align=center;" parent="1" vertex="1">
          <mxGeometry x="640" y="80" width="145" height="580" as="geometry" />
        </mxCell>
        <mxCell id="5pJVLN1JeZVY1ZvF7sRm-23" value="是否远程调用" style="rhombus;whiteSpace=wrap;html=1;" vertex="1" parent="7baba1c4bc27f4b0-5">
          <mxGeometry x="-72" y="165" width="80" height="50" as="geometry" />
        </mxCell>
        <mxCell id="5pJVLN1JeZVY1ZvF7sRm-43" value="返回数据" style="html=1;verticalAlign=bottom;endArrow=open;dashed=1;endSize=8;curved=0;rounded=0;exitX=0;exitY=1;exitDx=0;exitDy=-5;" edge="1" parent="7baba1c4bc27f4b0-5" target="5pJVLN1JeZVY1ZvF7sRm-7">
          <mxGeometry relative="1" as="geometry">
            <mxPoint x="71" y="310" as="targetPoint" />
            <mxPoint x="249" y="310" as="sourcePoint" />
          </mxGeometry>
        </mxCell>
        <mxCell id="5pJVLN1JeZVY1ZvF7sRm-44" value="" style="html=1;points=[[0,0,0,0,5],[0,1,0,0,-5],[1,0,0,0,5],[1,1,0,0,-5]];perimeter=orthogonalPerimeter;outlineConnect=0;targetShapes=umlLifeline;portConstraint=eastwest;newEdgeStyle={&quot;curved&quot;:0,&quot;rounded&quot;:0};" vertex="1" parent="7baba1c4bc27f4b0-5">
          <mxGeometry x="68" y="420" width="10" height="80" as="geometry" />
        </mxCell>
        <mxCell id="5pJVLN1JeZVY1ZvF7sRm-47" style="edgeStyle=orthogonalEdgeStyle;rounded=0;orthogonalLoop=1;jettySize=auto;html=1;exitX=0.5;exitY=1;exitDx=0;exitDy=0;entryX=0;entryY=0;entryDx=0;entryDy=5;entryPerimeter=0;" edge="1" parent="7baba1c4bc27f4b0-5" source="5pJVLN1JeZVY1ZvF7sRm-23" target="5pJVLN1JeZVY1ZvF7sRm-44">
          <mxGeometry relative="1" as="geometry" />
        </mxCell>
        <mxCell id="5pJVLN1JeZVY1ZvF7sRm-48" value="本地获取数据" style="edgeLabel;html=1;align=center;verticalAlign=middle;resizable=0;points=[];" vertex="1" connectable="0" parent="5pJVLN1JeZVY1ZvF7sRm-47">
          <mxGeometry x="0.7493" y="3" relative="1" as="geometry">
            <mxPoint x="-29" y="-2" as="offset" />
          </mxGeometry>
        </mxCell>
        <mxCell id="7baba1c4bc27f4b0-6" value="ApiCommonDataController&lt;div&gt;数据提供方服务controller&lt;/div&gt;" style="shape=umlLifeline;perimeter=lifelinePerimeter;whiteSpace=wrap;html=1;container=1;collapsible=0;recursiveResize=0;outlineConnect=0;rounded=1;shadow=0;comic=0;labelBackgroundColor=none;strokeWidth=1;fontFamily=Verdana;fontSize=12;align=center;" parent="1" vertex="1">
          <mxGeometry x="809" y="80" width="170" height="580" as="geometry" />
        </mxCell>
        <mxCell id="5pJVLN1JeZVY1ZvF7sRm-28" value="" style="html=1;points=[[0,0,0,0,5],[0,1,0,0,-5],[1,0,0,0,5],[1,1,0,0,-5]];perimeter=orthogonalPerimeter;outlineConnect=0;targetShapes=umlLifeline;portConstraint=eastwest;newEdgeStyle={&quot;curved&quot;:0,&quot;rounded&quot;:0};" vertex="1" parent="7baba1c4bc27f4b0-6">
          <mxGeometry x="80" y="185" width="10" height="140" as="geometry" />
        </mxCell>
        <mxCell id="7baba1c4bc27f4b0-8" value="&lt;span style=&quot;font-size: 10px;&quot;&gt;DataValueContext&lt;/span&gt;&lt;div&gt;&lt;span style=&quot;font-size: 10px;&quot;&gt;数据值上下文&lt;/span&gt;&lt;/div&gt;" style="shape=umlLifeline;perimeter=lifelinePerimeter;whiteSpace=wrap;html=1;container=1;collapsible=0;recursiveResize=0;outlineConnect=0;rounded=1;shadow=0;comic=0;labelBackgroundColor=none;strokeWidth=1;fontFamily=Verdana;fontSize=12;align=center;" parent="1" vertex="1">
          <mxGeometry x="100" y="80" width="100" height="580" as="geometry" />
        </mxCell>
        <mxCell id="7baba1c4bc27f4b0-9" value="" style="html=1;points=[];perimeter=orthogonalPerimeter;rounded=0;shadow=0;comic=0;labelBackgroundColor=none;strokeWidth=1;fontFamily=Verdana;fontSize=12;align=center;" parent="7baba1c4bc27f4b0-8" vertex="1">
          <mxGeometry x="45" y="100" width="10" height="440" as="geometry" />
        </mxCell>
        <mxCell id="5pJVLN1JeZVY1ZvF7sRm-51" value="返回数据" style="html=1;verticalAlign=bottom;endArrow=open;dashed=1;endSize=8;curved=0;rounded=0;" edge="1" parent="7baba1c4bc27f4b0-8">
          <mxGeometry x="-0.0026" relative="1" as="geometry">
            <mxPoint x="45.00034482758605" y="500" as="targetPoint" />
            <mxPoint x="199.69" y="500" as="sourcePoint" />
            <mxPoint as="offset" />
          </mxGeometry>
        </mxCell>
        <mxCell id="7baba1c4bc27f4b0-11" value="获取数据" style="html=1;verticalAlign=bottom;endArrow=block;entryX=0;entryY=0;labelBackgroundColor=none;fontFamily=Verdana;fontSize=12;edgeStyle=elbowEdgeStyle;elbow=vertical;" parent="1" source="7baba1c4bc27f4b0-9" target="7baba1c4bc27f4b0-10" edge="1">
          <mxGeometry x="0.0018" relative="1" as="geometry">
            <mxPoint x="220" y="190" as="sourcePoint" />
            <mxPoint as="offset" />
          </mxGeometry>
        </mxCell>
        <mxCell id="5pJVLN1JeZVY1ZvF7sRm-6" value="远程数据服务" style="shape=umlFrame;whiteSpace=wrap;html=1;pointerEvents=0;" vertex="1" parent="1">
          <mxGeometry x="785" y="170" width="365" height="360" as="geometry" />
        </mxCell>
        <mxCell id="5pJVLN1JeZVY1ZvF7sRm-7" value="&lt;font style=&quot;font-size: 10px;&quot;&gt;BaseCommonProcessHandler&lt;/font&gt;&lt;div&gt;&lt;span style=&quot;font-size: 10px;&quot;&gt;同源数据获取handler&lt;/span&gt;&lt;/div&gt;" style="shape=umlLifeline;perimeter=lifelinePerimeter;whiteSpace=wrap;html=1;container=1;collapsible=0;recursiveResize=0;outlineConnect=0;rounded=1;shadow=0;comic=0;labelBackgroundColor=none;strokeWidth=1;fontFamily=Verdana;fontSize=12;align=center;" vertex="1" parent="1">
          <mxGeometry x="400" y="80" width="160" height="580" as="geometry" />
        </mxCell>
        <mxCell id="5pJVLN1JeZVY1ZvF7sRm-8" value="" style="html=1;points=[];perimeter=orthogonalPerimeter;rounded=0;shadow=0;comic=0;labelBackgroundColor=none;strokeWidth=1;fontFamily=Verdana;fontSize=12;align=center;" vertex="1" parent="5pJVLN1JeZVY1ZvF7sRm-7">
          <mxGeometry x="75" y="99" width="10" height="411" as="geometry" />
        </mxCell>
        <mxCell id="5pJVLN1JeZVY1ZvF7sRm-15" value="" style="html=1;points=[[0,0,0,0,5],[0,1,0,0,-5],[1,0,0,0,5],[1,1,0,0,-5]];perimeter=orthogonalPerimeter;outlineConnect=0;targetShapes=umlLifeline;portConstraint=eastwest;newEdgeStyle={&quot;curved&quot;:0,&quot;rounded&quot;:0};" vertex="1" parent="5pJVLN1JeZVY1ZvF7sRm-7">
          <mxGeometry x="80" y="170" width="10" height="40" as="geometry" />
        </mxCell>
        <mxCell id="5pJVLN1JeZVY1ZvF7sRm-16" value="needRemote" style="html=1;align=left;spacingLeft=2;endArrow=block;rounded=0;edgeStyle=orthogonalEdgeStyle;curved=0;rounded=0;" edge="1" target="5pJVLN1JeZVY1ZvF7sRm-15" parent="5pJVLN1JeZVY1ZvF7sRm-7">
          <mxGeometry relative="1" as="geometry">
            <mxPoint x="85" y="150" as="sourcePoint" />
            <Array as="points">
              <mxPoint x="115" y="180" />
            </Array>
          </mxGeometry>
        </mxCell>
        <mxCell id="5pJVLN1JeZVY1ZvF7sRm-50" value="返回数据" style="html=1;verticalAlign=bottom;endArrow=open;dashed=1;endSize=8;curved=0;rounded=0;exitX=0;exitY=1;exitDx=0;exitDy=-5;entryX=1.483;entryY=0.988;entryDx=0;entryDy=0;entryPerimeter=0;" edge="1" parent="5pJVLN1JeZVY1ZvF7sRm-7">
          <mxGeometry x="-0.0026" relative="1" as="geometry">
            <mxPoint x="-88.17000000000007" y="490.0799999999999" as="targetPoint" />
            <mxPoint x="75" y="490" as="sourcePoint" />
            <mxPoint as="offset" />
          </mxGeometry>
        </mxCell>
        <mxCell id="5pJVLN1JeZVY1ZvF7sRm-46" value="返回数据" style="html=1;verticalAlign=bottom;endArrow=open;dashed=1;endSize=8;curved=0;rounded=0;exitX=0;exitY=1;exitDx=0;exitDy=-5;" edge="1" parent="5pJVLN1JeZVY1ZvF7sRm-7">
          <mxGeometry x="-0.0026" relative="1" as="geometry">
            <mxPoint x="85" y="480" as="targetPoint" />
            <mxPoint x="302.99999999999955" y="480" as="sourcePoint" />
            <mxPoint as="offset" />
          </mxGeometry>
        </mxCell>
        <mxCell id="5pJVLN1JeZVY1ZvF7sRm-29" style="edgeStyle=orthogonalEdgeStyle;rounded=0;orthogonalLoop=1;jettySize=auto;html=1;exitX=1;exitY=0.5;exitDx=0;exitDy=0;entryX=0;entryY=0;entryDx=0;entryDy=5;entryPerimeter=0;" edge="1" parent="1" source="5pJVLN1JeZVY1ZvF7sRm-23" target="5pJVLN1JeZVY1ZvF7sRm-28">
          <mxGeometry relative="1" as="geometry" />
        </mxCell>
        <mxCell id="5pJVLN1JeZVY1ZvF7sRm-35" value="远程获取数据" style="edgeLabel;html=1;align=center;verticalAlign=middle;resizable=0;points=[];" vertex="1" connectable="0" parent="5pJVLN1JeZVY1ZvF7sRm-29">
          <mxGeometry x="-0.8131" y="2" relative="1" as="geometry">
            <mxPoint x="114" y="2" as="offset" />
          </mxGeometry>
        </mxCell>
        <mxCell id="5pJVLN1JeZVY1ZvF7sRm-24" value="" style="edgeStyle=orthogonalEdgeStyle;rounded=0;orthogonalLoop=1;jettySize=auto;html=1;curved=0;" edge="1" parent="1" source="5pJVLN1JeZVY1ZvF7sRm-15" target="5pJVLN1JeZVY1ZvF7sRm-23">
          <mxGeometry relative="1" as="geometry" />
        </mxCell>
        <mxCell id="5pJVLN1JeZVY1ZvF7sRm-27" value="&lt;span style=&quot;font-size: 10px;&quot;&gt;ICommonDataHandler&lt;/span&gt;&lt;div&gt;&lt;span style=&quot;font-size: 10px;&quot;&gt;远程数据获取实现&lt;/span&gt;&lt;/div&gt;" style="shape=umlLifeline;perimeter=lifelinePerimeter;whiteSpace=wrap;html=1;container=1;collapsible=0;recursiveResize=0;outlineConnect=0;rounded=1;shadow=0;comic=0;labelBackgroundColor=none;strokeWidth=1;fontFamily=Verdana;fontSize=12;align=center;" vertex="1" parent="1">
          <mxGeometry x="992" y="80" width="170" height="580" as="geometry" />
        </mxCell>
        <mxCell id="5pJVLN1JeZVY1ZvF7sRm-40" value="" style="html=1;points=[[0,0,0,0,5],[0,1,0,0,-5],[1,0,0,0,5],[1,1,0,0,-5]];perimeter=orthogonalPerimeter;outlineConnect=0;targetShapes=umlLifeline;portConstraint=eastwest;newEdgeStyle={&quot;curved&quot;:0,&quot;rounded&quot;:0};" vertex="1" parent="5pJVLN1JeZVY1ZvF7sRm-27">
          <mxGeometry x="80" y="200" width="10" height="80" as="geometry" />
        </mxCell>
        <mxCell id="5pJVLN1JeZVY1ZvF7sRm-41" value="调用实现类获取数据" style="html=1;verticalAlign=bottom;endArrow=block;curved=0;rounded=0;entryX=0;entryY=0;entryDx=0;entryDy=5;" edge="1" parent="5pJVLN1JeZVY1ZvF7sRm-27" source="7baba1c4bc27f4b0-6">
          <mxGeometry relative="1" as="geometry">
            <mxPoint x="-72" y="210" as="sourcePoint" />
            <mxPoint x="80" y="210" as="targetPoint" />
          </mxGeometry>
        </mxCell>
        <mxCell id="5pJVLN1JeZVY1ZvF7sRm-42" value="返回数据" style="html=1;verticalAlign=bottom;endArrow=open;dashed=1;endSize=8;curved=0;rounded=0;exitX=0;exitY=1;exitDx=0;exitDy=-5;" edge="1" source="5pJVLN1JeZVY1ZvF7sRm-40" parent="1" target="7baba1c4bc27f4b0-6">
          <mxGeometry relative="1" as="geometry">
            <mxPoint x="1002" y="355" as="targetPoint" />
          </mxGeometry>
        </mxCell>
      </root>
    </mxGraphModel>
  </diagram>
</mxfile>
